<mxfile host="Electron" agent="Mozilla/5.0 (Macintosh; Intel Mac OS X 10_15_7) AppleWebKit/537.36 (KHTML, like Gecko) draw.io/26.0.16 Chrome/132.0.6834.196 Electron/34.2.0 Safari/537.36" version="26.0.16">
  <diagram id="C5RBs43oDa-KdzZeNtuy" name="Page-1">
    <mxGraphModel dx="1311" dy="969" grid="1" gridSize="10" guides="1" tooltips="1" connect="1" arrows="1" fold="1" page="1" pageScale="1" pageWidth="827" pageHeight="1169" math="0" shadow="0">
      <root>
        <mxCell id="WIyWlLk6GJQsqaUBKTNV-0" />
        <mxCell id="WIyWlLk6GJQsqaUBKTNV-1" parent="WIyWlLk6GJQsqaUBKTNV-0" />
        <mxCell id="HJgES-3uZnZ1iYDHPRsR-43" style="edgeStyle=orthogonalEdgeStyle;rounded=0;orthogonalLoop=1;jettySize=auto;html=1;exitX=0.5;exitY=1;exitDx=0;exitDy=0;exitPerimeter=0;entryX=0.5;entryY=0;entryDx=0;entryDy=0;fontFamily=STIX;entryPerimeter=0;" parent="WIyWlLk6GJQsqaUBKTNV-1" source="HJgES-3uZnZ1iYDHPRsR-1" target="1lUNTdqZq1-scsrUU96o-1" edge="1">
          <mxGeometry relative="1" as="geometry">
            <mxPoint x="120" y="100" as="targetPoint" />
          </mxGeometry>
        </mxCell>
        <mxCell id="HJgES-3uZnZ1iYDHPRsR-1" value="Connect" style="strokeWidth=2;html=1;shape=mxgraph.flowchart.start_2;whiteSpace=wrap;fontFamily=STIX;" parent="WIyWlLk6GJQsqaUBKTNV-1" vertex="1">
          <mxGeometry x="40" y="20" width="160" height="40" as="geometry" />
        </mxCell>
        <mxCell id="HJgES-3uZnZ1iYDHPRsR-44" style="edgeStyle=orthogonalEdgeStyle;rounded=0;orthogonalLoop=1;jettySize=auto;html=1;exitX=0.5;exitY=1;exitDx=0;exitDy=0;exitPerimeter=0;entryX=0.5;entryY=0;entryDx=0;entryDy=0;fontFamily=STIX;entryPerimeter=0;" parent="WIyWlLk6GJQsqaUBKTNV-1" source="HJgES-3uZnZ1iYDHPRsR-7" target="1lUNTdqZq1-scsrUU96o-12" edge="1">
          <mxGeometry relative="1" as="geometry">
            <mxPoint x="360" y="100" as="targetPoint" />
          </mxGeometry>
        </mxCell>
        <mxCell id="HJgES-3uZnZ1iYDHPRsR-7" value="Disconnect" style="strokeWidth=2;html=1;shape=mxgraph.flowchart.start_1;whiteSpace=wrap;fontFamily=STIX;" parent="WIyWlLk6GJQsqaUBKTNV-1" vertex="1">
          <mxGeometry x="280" y="20" width="160" height="40" as="geometry" />
        </mxCell>
        <mxCell id="HJgES-3uZnZ1iYDHPRsR-8" value="Receive Loop" style="strokeWidth=2;html=1;shape=mxgraph.flowchart.start_1;whiteSpace=wrap;fontFamily=STIX;" parent="WIyWlLk6GJQsqaUBKTNV-1" vertex="1">
          <mxGeometry x="520" y="20" width="160" height="40" as="geometry" />
        </mxCell>
        <mxCell id="HJgES-3uZnZ1iYDHPRsR-61" style="edgeStyle=orthogonalEdgeStyle;rounded=0;orthogonalLoop=1;jettySize=auto;html=1;exitX=0.5;exitY=1;exitDx=0;exitDy=0;exitPerimeter=0;entryX=0.5;entryY=0;entryDx=0;entryDy=0;fontFamily=STIX;" parent="WIyWlLk6GJQsqaUBKTNV-1" source="HJgES-3uZnZ1iYDHPRsR-10" target="1lUNTdqZq1-scsrUU96o-19" edge="1">
          <mxGeometry relative="1" as="geometry">
            <mxPoint x="840" y="100" as="targetPoint" />
          </mxGeometry>
        </mxCell>
        <mxCell id="HJgES-3uZnZ1iYDHPRsR-10" value="Send Ping Loop" style="strokeWidth=2;html=1;shape=mxgraph.flowchart.start_1;whiteSpace=wrap;fontFamily=STIX;" parent="WIyWlLk6GJQsqaUBKTNV-1" vertex="1">
          <mxGeometry x="760" y="20" width="160" height="40" as="geometry" />
        </mxCell>
        <mxCell id="HJgES-3uZnZ1iYDHPRsR-55" style="edgeStyle=orthogonalEdgeStyle;rounded=0;orthogonalLoop=1;jettySize=auto;html=1;exitX=0.5;exitY=1;exitDx=0;exitDy=0;exitPerimeter=0;entryX=0.5;entryY=0;entryDx=0;entryDy=0;fontFamily=STIX;" parent="WIyWlLk6GJQsqaUBKTNV-1" source="HJgES-3uZnZ1iYDHPRsR-8" target="1lUNTdqZq1-scsrUU96o-67" edge="1">
          <mxGeometry relative="1" as="geometry">
            <mxPoint x="600" y="100" as="targetPoint" />
          </mxGeometry>
        </mxCell>
        <mxCell id="1lUNTdqZq1-scsrUU96o-28" style="edgeStyle=orthogonalEdgeStyle;rounded=0;orthogonalLoop=1;jettySize=auto;html=1;exitX=0.5;exitY=1;exitDx=0;exitDy=0;exitPerimeter=0;entryX=0.5;entryY=0;entryDx=0;entryDy=0;fontFamily=STIX;" edge="1" parent="WIyWlLk6GJQsqaUBKTNV-1" source="1lUNTdqZq1-scsrUU96o-1" target="1lUNTdqZq1-scsrUU96o-4">
          <mxGeometry relative="1" as="geometry" />
        </mxCell>
        <mxCell id="1lUNTdqZq1-scsrUU96o-29" value="Yes" style="edgeLabel;html=1;align=center;verticalAlign=middle;resizable=0;points=[];fontFamily=STIX;" vertex="1" connectable="0" parent="1lUNTdqZq1-scsrUU96o-28">
          <mxGeometry x="-0.3591" y="2" relative="1" as="geometry">
            <mxPoint as="offset" />
          </mxGeometry>
        </mxCell>
        <mxCell id="1lUNTdqZq1-scsrUU96o-30" style="edgeStyle=orthogonalEdgeStyle;rounded=0;orthogonalLoop=1;jettySize=auto;html=1;exitX=1;exitY=0.5;exitDx=0;exitDy=0;exitPerimeter=0;entryX=0.5;entryY=0;entryDx=0;entryDy=0;fontFamily=STIX;" edge="1" parent="WIyWlLk6GJQsqaUBKTNV-1" source="1lUNTdqZq1-scsrUU96o-1" target="1lUNTdqZq1-scsrUU96o-5">
          <mxGeometry relative="1" as="geometry">
            <Array as="points">
              <mxPoint x="220" y="140" />
              <mxPoint x="220" y="280" />
              <mxPoint x="120" y="280" />
            </Array>
          </mxGeometry>
        </mxCell>
        <mxCell id="1lUNTdqZq1-scsrUU96o-32" value="No" style="edgeLabel;html=1;align=center;verticalAlign=middle;resizable=0;points=[];fontFamily=STIX;" vertex="1" connectable="0" parent="1lUNTdqZq1-scsrUU96o-30">
          <mxGeometry x="-0.9273" y="-3" relative="1" as="geometry">
            <mxPoint as="offset" />
          </mxGeometry>
        </mxCell>
        <mxCell id="1lUNTdqZq1-scsrUU96o-1" value="Is WebSocket&lt;div&gt;connected?&lt;/div&gt;" style="strokeWidth=2;html=1;shape=mxgraph.flowchart.decision;whiteSpace=wrap;fontFamily=STIX;" vertex="1" parent="WIyWlLk6GJQsqaUBKTNV-1">
          <mxGeometry x="40" y="100" width="160" height="80" as="geometry" />
        </mxCell>
        <mxCell id="1lUNTdqZq1-scsrUU96o-3" value="" style="rounded=1;whiteSpace=wrap;html=1;absoluteArcSize=1;arcSize=14;strokeWidth=2;fontFamily=STIX;" vertex="1" parent="WIyWlLk6GJQsqaUBKTNV-1">
          <mxGeometry x="40" y="220" width="160" height="40" as="geometry" />
        </mxCell>
        <mxCell id="1lUNTdqZq1-scsrUU96o-33" style="edgeStyle=orthogonalEdgeStyle;rounded=0;orthogonalLoop=1;jettySize=auto;html=1;exitX=0.5;exitY=1;exitDx=0;exitDy=0;fontFamily=STIX;" edge="1" parent="WIyWlLk6GJQsqaUBKTNV-1" source="1lUNTdqZq1-scsrUU96o-4">
          <mxGeometry relative="1" as="geometry">
            <mxPoint x="119.72727272727275" y="300" as="targetPoint" />
          </mxGeometry>
        </mxCell>
        <mxCell id="1lUNTdqZq1-scsrUU96o-4" value="Disconnect" style="rounded=1;whiteSpace=wrap;html=1;absoluteArcSize=1;arcSize=14;strokeWidth=2;fontFamily=STIX;" vertex="1" parent="WIyWlLk6GJQsqaUBKTNV-1">
          <mxGeometry x="50" y="220" width="140" height="40" as="geometry" />
        </mxCell>
        <mxCell id="1lUNTdqZq1-scsrUU96o-34" style="edgeStyle=orthogonalEdgeStyle;rounded=0;orthogonalLoop=1;jettySize=auto;html=1;exitX=0.5;exitY=1;exitDx=0;exitDy=0;entryX=0.5;entryY=0;entryDx=0;entryDy=0;fontFamily=STIX;" edge="1" parent="WIyWlLk6GJQsqaUBKTNV-1" source="1lUNTdqZq1-scsrUU96o-5" target="1lUNTdqZq1-scsrUU96o-6">
          <mxGeometry relative="1" as="geometry" />
        </mxCell>
        <mxCell id="1lUNTdqZq1-scsrUU96o-5" value="Connect to WebSocket" style="rounded=1;whiteSpace=wrap;html=1;absoluteArcSize=1;arcSize=14;strokeWidth=2;fontFamily=STIX;" vertex="1" parent="WIyWlLk6GJQsqaUBKTNV-1">
          <mxGeometry x="40" y="300" width="160" height="40" as="geometry" />
        </mxCell>
        <mxCell id="1lUNTdqZq1-scsrUU96o-35" style="edgeStyle=orthogonalEdgeStyle;rounded=0;orthogonalLoop=1;jettySize=auto;html=1;exitX=0.5;exitY=1;exitDx=0;exitDy=0;entryX=0.5;entryY=0;entryDx=0;entryDy=0;fontFamily=STIX;" edge="1" parent="WIyWlLk6GJQsqaUBKTNV-1" source="1lUNTdqZq1-scsrUU96o-6" target="1lUNTdqZq1-scsrUU96o-7">
          <mxGeometry relative="1" as="geometry" />
        </mxCell>
        <mxCell id="1lUNTdqZq1-scsrUU96o-6" value="Start Receive Loop" style="rounded=1;whiteSpace=wrap;html=1;absoluteArcSize=1;arcSize=14;strokeWidth=2;fontFamily=STIX;" vertex="1" parent="WIyWlLk6GJQsqaUBKTNV-1">
          <mxGeometry x="40" y="380" width="160" height="40" as="geometry" />
        </mxCell>
        <mxCell id="1lUNTdqZq1-scsrUU96o-36" style="edgeStyle=orthogonalEdgeStyle;rounded=0;orthogonalLoop=1;jettySize=auto;html=1;exitX=0.5;exitY=1;exitDx=0;exitDy=0;entryX=0.5;entryY=0;entryDx=0;entryDy=0;fontFamily=STIX;" edge="1" parent="WIyWlLk6GJQsqaUBKTNV-1" source="1lUNTdqZq1-scsrUU96o-7" target="1lUNTdqZq1-scsrUU96o-8">
          <mxGeometry relative="1" as="geometry" />
        </mxCell>
        <mxCell id="1lUNTdqZq1-scsrUU96o-7" value="Start Send Ping Loop" style="rounded=1;whiteSpace=wrap;html=1;absoluteArcSize=1;arcSize=14;strokeWidth=2;fontFamily=STIX;" vertex="1" parent="WIyWlLk6GJQsqaUBKTNV-1">
          <mxGeometry x="40" y="460" width="160" height="40" as="geometry" />
        </mxCell>
        <mxCell id="1lUNTdqZq1-scsrUU96o-37" style="edgeStyle=orthogonalEdgeStyle;rounded=0;orthogonalLoop=1;jettySize=auto;html=1;exitX=0.5;exitY=1;exitDx=0;exitDy=0;entryX=0.5;entryY=0;entryDx=0;entryDy=0;fontFamily=STIX;" edge="1" parent="WIyWlLk6GJQsqaUBKTNV-1" source="1lUNTdqZq1-scsrUU96o-8" target="1lUNTdqZq1-scsrUU96o-10">
          <mxGeometry relative="1" as="geometry" />
        </mxCell>
        <mxCell id="1lUNTdqZq1-scsrUU96o-8" value="Start Check Ping Loop" style="rounded=1;whiteSpace=wrap;html=1;absoluteArcSize=1;arcSize=14;strokeWidth=2;fontFamily=STIX;" vertex="1" parent="WIyWlLk6GJQsqaUBKTNV-1">
          <mxGeometry x="40" y="540" width="160" height="40" as="geometry" />
        </mxCell>
        <mxCell id="1lUNTdqZq1-scsrUU96o-10" value="Invoke&lt;div&gt;Status Changed&lt;/div&gt;&lt;div&gt;Event&lt;/div&gt;" style="shape=parallelogram;html=1;strokeWidth=2;perimeter=parallelogramPerimeter;whiteSpace=wrap;rounded=1;arcSize=12;size=0.23;fontFamily=STIX;" vertex="1" parent="WIyWlLk6GJQsqaUBKTNV-1">
          <mxGeometry x="40" y="620" width="160" height="80" as="geometry" />
        </mxCell>
        <mxCell id="1lUNTdqZq1-scsrUU96o-11" value="Finish" style="strokeWidth=2;html=1;shape=mxgraph.flowchart.terminator;whiteSpace=wrap;fontFamily=STIX;" vertex="1" parent="WIyWlLk6GJQsqaUBKTNV-1">
          <mxGeometry x="40" y="730" width="160" height="60" as="geometry" />
        </mxCell>
        <mxCell id="1lUNTdqZq1-scsrUU96o-39" style="edgeStyle=orthogonalEdgeStyle;rounded=0;orthogonalLoop=1;jettySize=auto;html=1;exitX=0.5;exitY=1;exitDx=0;exitDy=0;exitPerimeter=0;entryX=0.5;entryY=0;entryDx=0;entryDy=0;fontFamily=STIX;" edge="1" parent="WIyWlLk6GJQsqaUBKTNV-1" source="1lUNTdqZq1-scsrUU96o-12" target="1lUNTdqZq1-scsrUU96o-13">
          <mxGeometry relative="1" as="geometry" />
        </mxCell>
        <mxCell id="1lUNTdqZq1-scsrUU96o-40" value="Yes" style="edgeLabel;html=1;align=center;verticalAlign=middle;resizable=0;points=[];fontFamily=STIX;" vertex="1" connectable="0" parent="1lUNTdqZq1-scsrUU96o-39">
          <mxGeometry x="-0.4045" y="-1" relative="1" as="geometry">
            <mxPoint as="offset" />
          </mxGeometry>
        </mxCell>
        <mxCell id="1lUNTdqZq1-scsrUU96o-41" style="edgeStyle=orthogonalEdgeStyle;rounded=0;orthogonalLoop=1;jettySize=auto;html=1;exitX=1;exitY=0.5;exitDx=0;exitDy=0;exitPerimeter=0;entryX=1;entryY=0.5;entryDx=0;entryDy=0;fontFamily=STIX;" edge="1" parent="WIyWlLk6GJQsqaUBKTNV-1" source="1lUNTdqZq1-scsrUU96o-12" target="1lUNTdqZq1-scsrUU96o-13">
          <mxGeometry relative="1" as="geometry" />
        </mxCell>
        <mxCell id="1lUNTdqZq1-scsrUU96o-42" value="No" style="edgeLabel;html=1;align=center;verticalAlign=middle;resizable=0;points=[];fontFamily=STIX;" vertex="1" connectable="0" parent="1lUNTdqZq1-scsrUU96o-41">
          <mxGeometry x="0.0143" y="1" relative="1" as="geometry">
            <mxPoint as="offset" />
          </mxGeometry>
        </mxCell>
        <mxCell id="1lUNTdqZq1-scsrUU96o-12" value="Is WebSocket&lt;div&gt;connected?&lt;/div&gt;" style="strokeWidth=2;html=1;shape=mxgraph.flowchart.decision;whiteSpace=wrap;fontFamily=STIX;" vertex="1" parent="WIyWlLk6GJQsqaUBKTNV-1">
          <mxGeometry x="280" y="100" width="160" height="80" as="geometry" />
        </mxCell>
        <mxCell id="1lUNTdqZq1-scsrUU96o-43" style="edgeStyle=orthogonalEdgeStyle;rounded=0;orthogonalLoop=1;jettySize=auto;html=1;exitX=0.5;exitY=1;exitDx=0;exitDy=0;entryX=0.5;entryY=0;entryDx=0;entryDy=0;fontFamily=STIX;" edge="1" parent="WIyWlLk6GJQsqaUBKTNV-1" source="1lUNTdqZq1-scsrUU96o-13" target="1lUNTdqZq1-scsrUU96o-14">
          <mxGeometry relative="1" as="geometry" />
        </mxCell>
        <mxCell id="1lUNTdqZq1-scsrUU96o-13" value="Disconnect from WebSocket" style="rounded=1;whiteSpace=wrap;html=1;absoluteArcSize=1;arcSize=14;strokeWidth=2;fontFamily=STIX;" vertex="1" parent="WIyWlLk6GJQsqaUBKTNV-1">
          <mxGeometry x="280" y="220" width="160" height="40" as="geometry" />
        </mxCell>
        <mxCell id="1lUNTdqZq1-scsrUU96o-44" style="edgeStyle=orthogonalEdgeStyle;rounded=0;orthogonalLoop=1;jettySize=auto;html=1;exitX=0.5;exitY=1;exitDx=0;exitDy=0;entryX=0.5;entryY=0;entryDx=0;entryDy=0;fontFamily=STIX;" edge="1" parent="WIyWlLk6GJQsqaUBKTNV-1" source="1lUNTdqZq1-scsrUU96o-14" target="1lUNTdqZq1-scsrUU96o-15">
          <mxGeometry relative="1" as="geometry" />
        </mxCell>
        <mxCell id="1lUNTdqZq1-scsrUU96o-14" value="Stop Loops&lt;div&gt;using Cancellation Token&lt;/div&gt;" style="rounded=1;whiteSpace=wrap;html=1;absoluteArcSize=1;arcSize=14;strokeWidth=2;fontFamily=STIX;" vertex="1" parent="WIyWlLk6GJQsqaUBKTNV-1">
          <mxGeometry x="280" y="300" width="160" height="40" as="geometry" />
        </mxCell>
        <mxCell id="1lUNTdqZq1-scsrUU96o-48" style="edgeStyle=orthogonalEdgeStyle;rounded=0;orthogonalLoop=1;jettySize=auto;html=1;exitX=0.5;exitY=1;exitDx=0;exitDy=0;entryX=0.5;entryY=0;entryDx=0;entryDy=0;fontFamily=STIX;" edge="1" parent="WIyWlLk6GJQsqaUBKTNV-1" source="1lUNTdqZq1-scsrUU96o-15" target="1lUNTdqZq1-scsrUU96o-46">
          <mxGeometry relative="1" as="geometry" />
        </mxCell>
        <mxCell id="1lUNTdqZq1-scsrUU96o-15" value="Reset WebSocket" style="rounded=1;whiteSpace=wrap;html=1;absoluteArcSize=1;arcSize=14;strokeWidth=2;fontFamily=STIX;" vertex="1" parent="WIyWlLk6GJQsqaUBKTNV-1">
          <mxGeometry x="280" y="380" width="160" height="40" as="geometry" />
        </mxCell>
        <mxCell id="1lUNTdqZq1-scsrUU96o-16" value="Invoke&lt;div&gt;Status Changed&lt;/div&gt;&lt;div&gt;Event&lt;/div&gt;" style="shape=parallelogram;html=1;strokeWidth=2;perimeter=parallelogramPerimeter;whiteSpace=wrap;rounded=1;arcSize=12;size=0.23;fontFamily=STIX;" vertex="1" parent="WIyWlLk6GJQsqaUBKTNV-1">
          <mxGeometry x="280" y="540" width="160" height="80" as="geometry" />
        </mxCell>
        <mxCell id="1lUNTdqZq1-scsrUU96o-17" value="Finish" style="strokeWidth=2;html=1;shape=mxgraph.flowchart.terminator;whiteSpace=wrap;fontFamily=STIX;" vertex="1" parent="WIyWlLk6GJQsqaUBKTNV-1">
          <mxGeometry x="280" y="660" width="160" height="60" as="geometry" />
        </mxCell>
        <mxCell id="1lUNTdqZq1-scsrUU96o-18" value="Check Ping Loop" style="strokeWidth=2;html=1;shape=mxgraph.flowchart.start_1;whiteSpace=wrap;fontFamily=STIX;" vertex="1" parent="WIyWlLk6GJQsqaUBKTNV-1">
          <mxGeometry x="760" y="420" width="160" height="40" as="geometry" />
        </mxCell>
        <mxCell id="1lUNTdqZq1-scsrUU96o-53" style="edgeStyle=orthogonalEdgeStyle;rounded=0;orthogonalLoop=1;jettySize=auto;html=1;exitX=0.5;exitY=1;exitDx=0;exitDy=0;entryX=0.5;entryY=0;entryDx=0;entryDy=0;fontFamily=STIX;" edge="1" parent="WIyWlLk6GJQsqaUBKTNV-1" source="1lUNTdqZq1-scsrUU96o-19" target="1lUNTdqZq1-scsrUU96o-21">
          <mxGeometry relative="1" as="geometry" />
        </mxCell>
        <mxCell id="1lUNTdqZq1-scsrUU96o-19" value="Generate random Ping ID" style="rounded=1;whiteSpace=wrap;html=1;absoluteArcSize=1;arcSize=14;strokeWidth=2;fontFamily=STIX;" vertex="1" parent="WIyWlLk6GJQsqaUBKTNV-1">
          <mxGeometry x="760" y="100" width="160" height="40" as="geometry" />
        </mxCell>
        <mxCell id="1lUNTdqZq1-scsrUU96o-54" style="edgeStyle=orthogonalEdgeStyle;rounded=0;orthogonalLoop=1;jettySize=auto;html=1;exitX=0.5;exitY=1;exitDx=0;exitDy=0;entryX=0.5;entryY=0;entryDx=0;entryDy=0;fontFamily=STIX;" edge="1" parent="WIyWlLk6GJQsqaUBKTNV-1" source="1lUNTdqZq1-scsrUU96o-21" target="1lUNTdqZq1-scsrUU96o-22">
          <mxGeometry relative="1" as="geometry" />
        </mxCell>
        <mxCell id="1lUNTdqZq1-scsrUU96o-21" value="Add Ping ID to&lt;div&gt;queue of Ping IDs&lt;/div&gt;" style="rounded=1;whiteSpace=wrap;html=1;absoluteArcSize=1;arcSize=14;strokeWidth=2;fontFamily=STIX;" vertex="1" parent="WIyWlLk6GJQsqaUBKTNV-1">
          <mxGeometry x="760" y="180" width="160" height="40" as="geometry" />
        </mxCell>
        <mxCell id="1lUNTdqZq1-scsrUU96o-56" style="edgeStyle=orthogonalEdgeStyle;rounded=0;orthogonalLoop=1;jettySize=auto;html=1;exitX=1;exitY=0.5;exitDx=0;exitDy=0;entryX=0.5;entryY=0;entryDx=0;entryDy=0;fontFamily=STIX;" edge="1" parent="WIyWlLk6GJQsqaUBKTNV-1" source="1lUNTdqZq1-scsrUU96o-59" target="1lUNTdqZq1-scsrUU96o-19">
          <mxGeometry relative="1" as="geometry" />
        </mxCell>
        <mxCell id="1lUNTdqZq1-scsrUU96o-60" style="edgeStyle=orthogonalEdgeStyle;rounded=0;orthogonalLoop=1;jettySize=auto;html=1;exitX=0.5;exitY=1;exitDx=0;exitDy=0;entryX=0.5;entryY=0;entryDx=0;entryDy=0;fontFamily=STIX;" edge="1" parent="WIyWlLk6GJQsqaUBKTNV-1" source="1lUNTdqZq1-scsrUU96o-22" target="1lUNTdqZq1-scsrUU96o-59">
          <mxGeometry relative="1" as="geometry" />
        </mxCell>
        <mxCell id="1lUNTdqZq1-scsrUU96o-22" value="Send Ping Request" style="rounded=1;whiteSpace=wrap;html=1;absoluteArcSize=1;arcSize=14;strokeWidth=2;fontFamily=STIX;" vertex="1" parent="WIyWlLk6GJQsqaUBKTNV-1">
          <mxGeometry x="760" y="260" width="160" height="40" as="geometry" />
        </mxCell>
        <mxCell id="1lUNTdqZq1-scsrUU96o-61" style="edgeStyle=orthogonalEdgeStyle;rounded=0;orthogonalLoop=1;jettySize=auto;html=1;exitX=0.5;exitY=1;exitDx=0;exitDy=0;exitPerimeter=0;entryX=0.5;entryY=0;entryDx=0;entryDy=0;fontFamily=STIX;" edge="1" parent="WIyWlLk6GJQsqaUBKTNV-1" source="1lUNTdqZq1-scsrUU96o-23" target="1lUNTdqZq1-scsrUU96o-25">
          <mxGeometry relative="1" as="geometry" />
        </mxCell>
        <mxCell id="1lUNTdqZq1-scsrUU96o-62" value="Yes" style="edgeLabel;html=1;align=center;verticalAlign=middle;resizable=0;points=[];fontFamily=STIX;" vertex="1" connectable="0" parent="1lUNTdqZq1-scsrUU96o-61">
          <mxGeometry x="-0.3591" y="-3" relative="1" as="geometry">
            <mxPoint as="offset" />
          </mxGeometry>
        </mxCell>
        <mxCell id="1lUNTdqZq1-scsrUU96o-64" value="No" style="edgeStyle=orthogonalEdgeStyle;rounded=0;orthogonalLoop=1;jettySize=auto;html=1;exitX=0;exitY=0.5;exitDx=0;exitDy=0;exitPerimeter=0;entryX=0.5;entryY=0;entryDx=0;entryDy=0;fontFamily=STIX;" edge="1" parent="WIyWlLk6GJQsqaUBKTNV-1" source="1lUNTdqZq1-scsrUU96o-23" target="1lUNTdqZq1-scsrUU96o-65">
          <mxGeometry x="-0.9459" relative="1" as="geometry">
            <mxPoint x="850" y="790" as="targetPoint" />
            <Array as="points">
              <mxPoint x="740" y="530" />
              <mxPoint x="740" y="760" />
              <mxPoint x="840" y="760" />
            </Array>
            <mxPoint as="offset" />
          </mxGeometry>
        </mxCell>
        <mxCell id="1lUNTdqZq1-scsrUU96o-23" value="No of&lt;div&gt;unreceived&amp;nbsp;&lt;span style=&quot;background-color: transparent; color: light-dark(rgb(0, 0, 0), rgb(255, 255, 255));&quot;&gt;pings over&lt;/span&gt;&lt;div&gt;maximum?&lt;/div&gt;&lt;/div&gt;" style="strokeWidth=2;html=1;shape=mxgraph.flowchart.decision;whiteSpace=wrap;fontFamily=STIX;" vertex="1" parent="WIyWlLk6GJQsqaUBKTNV-1">
          <mxGeometry x="760" y="500" width="160" height="60" as="geometry" />
        </mxCell>
        <mxCell id="1lUNTdqZq1-scsrUU96o-24" value="" style="rounded=1;whiteSpace=wrap;html=1;absoluteArcSize=1;arcSize=14;strokeWidth=2;fontFamily=STIX;" vertex="1" parent="WIyWlLk6GJQsqaUBKTNV-1">
          <mxGeometry x="760" y="600" width="160" height="40" as="geometry" />
        </mxCell>
        <mxCell id="1lUNTdqZq1-scsrUU96o-25" value="Disconnect" style="rounded=1;whiteSpace=wrap;html=1;absoluteArcSize=1;arcSize=14;strokeWidth=2;fontFamily=STIX;" vertex="1" parent="WIyWlLk6GJQsqaUBKTNV-1">
          <mxGeometry x="770" y="600" width="140" height="40" as="geometry" />
        </mxCell>
        <mxCell id="1lUNTdqZq1-scsrUU96o-26" style="edgeStyle=orthogonalEdgeStyle;rounded=0;orthogonalLoop=1;jettySize=auto;html=1;exitX=0.5;exitY=1;exitDx=0;exitDy=0;fontFamily=STIX;" edge="1" parent="WIyWlLk6GJQsqaUBKTNV-1" source="1lUNTdqZq1-scsrUU96o-24" target="1lUNTdqZq1-scsrUU96o-24">
          <mxGeometry relative="1" as="geometry" />
        </mxCell>
        <mxCell id="1lUNTdqZq1-scsrUU96o-27" value="Finish" style="strokeWidth=2;html=1;shape=mxgraph.flowchart.terminator;whiteSpace=wrap;fontFamily=STIX;" vertex="1" parent="WIyWlLk6GJQsqaUBKTNV-1">
          <mxGeometry x="760" y="680" width="160" height="60" as="geometry" />
        </mxCell>
        <mxCell id="1lUNTdqZq1-scsrUU96o-38" style="edgeStyle=orthogonalEdgeStyle;rounded=0;orthogonalLoop=1;jettySize=auto;html=1;exitX=0.5;exitY=1;exitDx=0;exitDy=0;entryX=0.5;entryY=0;entryDx=0;entryDy=0;entryPerimeter=0;fontFamily=STIX;" edge="1" parent="WIyWlLk6GJQsqaUBKTNV-1" source="1lUNTdqZq1-scsrUU96o-10" target="1lUNTdqZq1-scsrUU96o-11">
          <mxGeometry relative="1" as="geometry" />
        </mxCell>
        <mxCell id="1lUNTdqZq1-scsrUU96o-49" style="edgeStyle=orthogonalEdgeStyle;rounded=0;orthogonalLoop=1;jettySize=auto;html=1;exitX=0.5;exitY=1;exitDx=0;exitDy=0;entryX=0.5;entryY=0;entryDx=0;entryDy=0;fontFamily=STIX;" edge="1" parent="WIyWlLk6GJQsqaUBKTNV-1" source="1lUNTdqZq1-scsrUU96o-46" target="1lUNTdqZq1-scsrUU96o-16">
          <mxGeometry relative="1" as="geometry" />
        </mxCell>
        <mxCell id="1lUNTdqZq1-scsrUU96o-46" value="Clear Unreceived Ping Queue" style="rounded=1;whiteSpace=wrap;html=1;absoluteArcSize=1;arcSize=14;strokeWidth=2;fontFamily=STIX;" vertex="1" parent="WIyWlLk6GJQsqaUBKTNV-1">
          <mxGeometry x="280" y="460" width="160" height="40" as="geometry" />
        </mxCell>
        <mxCell id="1lUNTdqZq1-scsrUU96o-50" style="edgeStyle=orthogonalEdgeStyle;rounded=0;orthogonalLoop=1;jettySize=auto;html=1;exitX=0.5;exitY=1;exitDx=0;exitDy=0;entryX=0.5;entryY=0;entryDx=0;entryDy=0;entryPerimeter=0;fontFamily=STIX;" edge="1" parent="WIyWlLk6GJQsqaUBKTNV-1" source="1lUNTdqZq1-scsrUU96o-16" target="1lUNTdqZq1-scsrUU96o-17">
          <mxGeometry relative="1" as="geometry" />
        </mxCell>
        <mxCell id="1lUNTdqZq1-scsrUU96o-57" style="edgeStyle=orthogonalEdgeStyle;rounded=0;orthogonalLoop=1;jettySize=auto;html=1;exitX=0.5;exitY=1;exitDx=0;exitDy=0;exitPerimeter=0;entryX=0.5;entryY=0;entryDx=0;entryDy=0;entryPerimeter=0;fontFamily=STIX;" edge="1" parent="WIyWlLk6GJQsqaUBKTNV-1" source="1lUNTdqZq1-scsrUU96o-18" target="1lUNTdqZq1-scsrUU96o-23">
          <mxGeometry relative="1" as="geometry" />
        </mxCell>
        <mxCell id="1lUNTdqZq1-scsrUU96o-59" value="Wait for a Period of Time" style="rounded=1;whiteSpace=wrap;html=1;absoluteArcSize=1;arcSize=14;strokeWidth=2;fontFamily=STIX;" vertex="1" parent="WIyWlLk6GJQsqaUBKTNV-1">
          <mxGeometry x="760" y="340" width="160" height="40" as="geometry" />
        </mxCell>
        <mxCell id="1lUNTdqZq1-scsrUU96o-63" style="edgeStyle=orthogonalEdgeStyle;rounded=0;orthogonalLoop=1;jettySize=auto;html=1;exitX=0.5;exitY=1;exitDx=0;exitDy=0;entryX=0.5;entryY=0;entryDx=0;entryDy=0;entryPerimeter=0;fontFamily=STIX;" edge="1" parent="WIyWlLk6GJQsqaUBKTNV-1" source="1lUNTdqZq1-scsrUU96o-25" target="1lUNTdqZq1-scsrUU96o-27">
          <mxGeometry relative="1" as="geometry" />
        </mxCell>
        <mxCell id="1lUNTdqZq1-scsrUU96o-65" value="Wait for a Period of Time" style="rounded=1;whiteSpace=wrap;html=1;absoluteArcSize=1;arcSize=14;strokeWidth=2;fontFamily=STIX;" vertex="1" parent="WIyWlLk6GJQsqaUBKTNV-1">
          <mxGeometry x="760" y="780" width="160" height="40" as="geometry" />
        </mxCell>
        <mxCell id="1lUNTdqZq1-scsrUU96o-66" style="edgeStyle=orthogonalEdgeStyle;rounded=0;orthogonalLoop=1;jettySize=auto;html=1;exitX=1;exitY=0.5;exitDx=0;exitDy=0;entryX=0.5;entryY=0;entryDx=0;entryDy=0;entryPerimeter=0;fontFamily=STIX;" edge="1" parent="WIyWlLk6GJQsqaUBKTNV-1" source="1lUNTdqZq1-scsrUU96o-65" target="1lUNTdqZq1-scsrUU96o-23">
          <mxGeometry relative="1" as="geometry">
            <Array as="points">
              <mxPoint x="940" y="800" />
              <mxPoint x="940" y="480" />
              <mxPoint x="840" y="480" />
            </Array>
          </mxGeometry>
        </mxCell>
        <mxCell id="1lUNTdqZq1-scsrUU96o-72" style="edgeStyle=orthogonalEdgeStyle;rounded=0;orthogonalLoop=1;jettySize=auto;html=1;exitX=0.5;exitY=1;exitDx=0;exitDy=0;entryX=0.5;entryY=0;entryDx=0;entryDy=0;fontFamily=STIX;" edge="1" parent="WIyWlLk6GJQsqaUBKTNV-1" source="1lUNTdqZq1-scsrUU96o-67" target="1lUNTdqZq1-scsrUU96o-68">
          <mxGeometry relative="1" as="geometry" />
        </mxCell>
        <mxCell id="1lUNTdqZq1-scsrUU96o-67" value="&lt;div&gt;&lt;span style=&quot;background-color: transparent; color: light-dark(rgb(0, 0, 0), rgb(255, 255, 255));&quot;&gt;Receive Response&lt;/span&gt;&lt;/div&gt;&lt;div&gt;&lt;span style=&quot;background-color: transparent; color: light-dark(rgb(0, 0, 0), rgb(255, 255, 255));&quot;&gt;from&amp;nbsp;&lt;/span&gt;&lt;span style=&quot;background-color: transparent; color: light-dark(rgb(0, 0, 0), rgb(255, 255, 255));&quot;&gt;WebSocket&lt;/span&gt;&lt;/div&gt;" style="shape=parallelogram;html=1;strokeWidth=2;perimeter=parallelogramPerimeter;whiteSpace=wrap;rounded=1;arcSize=12;size=0.23;fontFamily=STIX;" vertex="1" parent="WIyWlLk6GJQsqaUBKTNV-1">
          <mxGeometry x="520" y="100" width="160" height="80" as="geometry" />
        </mxCell>
        <mxCell id="1lUNTdqZq1-scsrUU96o-74" style="edgeStyle=orthogonalEdgeStyle;rounded=0;orthogonalLoop=1;jettySize=auto;html=1;exitX=0.5;exitY=1;exitDx=0;exitDy=0;entryX=0.5;entryY=0;entryDx=0;entryDy=0;entryPerimeter=0;fontFamily=STIX;" edge="1" parent="WIyWlLk6GJQsqaUBKTNV-1" source="1lUNTdqZq1-scsrUU96o-68" target="1lUNTdqZq1-scsrUU96o-76">
          <mxGeometry relative="1" as="geometry" />
        </mxCell>
        <mxCell id="1lUNTdqZq1-scsrUU96o-68" value="Deserialise Response" style="shape=parallelogram;html=1;strokeWidth=2;perimeter=parallelogramPerimeter;whiteSpace=wrap;rounded=1;arcSize=12;size=0.23;fontFamily=STIX;" vertex="1" parent="WIyWlLk6GJQsqaUBKTNV-1">
          <mxGeometry x="520" y="220" width="160" height="80" as="geometry" />
        </mxCell>
        <mxCell id="1lUNTdqZq1-scsrUU96o-75" style="edgeStyle=orthogonalEdgeStyle;rounded=0;orthogonalLoop=1;jettySize=auto;html=1;exitX=1;exitY=0.5;exitDx=0;exitDy=0;entryX=0.5;entryY=0;entryDx=0;entryDy=0;fontFamily=STIX;" edge="1" parent="WIyWlLk6GJQsqaUBKTNV-1" source="1lUNTdqZq1-scsrUU96o-69" target="1lUNTdqZq1-scsrUU96o-67">
          <mxGeometry relative="1" as="geometry" />
        </mxCell>
        <mxCell id="1lUNTdqZq1-scsrUU96o-69" value="" style="rounded=1;whiteSpace=wrap;html=1;absoluteArcSize=1;arcSize=14;strokeWidth=2;fontFamily=STIX;" vertex="1" parent="WIyWlLk6GJQsqaUBKTNV-1">
          <mxGeometry x="520" y="460" width="160" height="40" as="geometry" />
        </mxCell>
        <mxCell id="1lUNTdqZq1-scsrUU96o-70" value="Deal with Response" style="rounded=1;whiteSpace=wrap;html=1;absoluteArcSize=1;arcSize=14;strokeWidth=2;fontFamily=STIX;" vertex="1" parent="WIyWlLk6GJQsqaUBKTNV-1">
          <mxGeometry x="530" y="460" width="140" height="40" as="geometry" />
        </mxCell>
        <mxCell id="1lUNTdqZq1-scsrUU96o-77" style="edgeStyle=orthogonalEdgeStyle;rounded=0;orthogonalLoop=1;jettySize=auto;html=1;exitX=0.5;exitY=1;exitDx=0;exitDy=0;exitPerimeter=0;entryX=0.5;entryY=0;entryDx=0;entryDy=0;fontFamily=STIX;" edge="1" parent="WIyWlLk6GJQsqaUBKTNV-1" source="1lUNTdqZq1-scsrUU96o-76" target="1lUNTdqZq1-scsrUU96o-70">
          <mxGeometry relative="1" as="geometry" />
        </mxCell>
        <mxCell id="1lUNTdqZq1-scsrUU96o-78" value="Yes" style="edgeLabel;html=1;align=center;verticalAlign=middle;resizable=0;points=[];fontFamily=STIX;" vertex="1" connectable="0" parent="1lUNTdqZq1-scsrUU96o-77">
          <mxGeometry x="-0.19" y="2" relative="1" as="geometry">
            <mxPoint as="offset" />
          </mxGeometry>
        </mxCell>
        <mxCell id="1lUNTdqZq1-scsrUU96o-80" style="edgeStyle=orthogonalEdgeStyle;rounded=0;orthogonalLoop=1;jettySize=auto;html=1;exitX=0;exitY=0.5;exitDx=0;exitDy=0;exitPerimeter=0;entryX=0;entryY=0.5;entryDx=0;entryDy=0;fontFamily=STIX;" edge="1" parent="WIyWlLk6GJQsqaUBKTNV-1" source="1lUNTdqZq1-scsrUU96o-76" target="1lUNTdqZq1-scsrUU96o-81">
          <mxGeometry relative="1" as="geometry">
            <mxPoint x="480" y="570" as="targetPoint" />
          </mxGeometry>
        </mxCell>
        <mxCell id="1lUNTdqZq1-scsrUU96o-89" value="No" style="edgeLabel;html=1;align=center;verticalAlign=middle;resizable=0;points=[];fontFamily=STIX;" vertex="1" connectable="0" parent="1lUNTdqZq1-scsrUU96o-80">
          <mxGeometry x="-0.9181" y="1" relative="1" as="geometry">
            <mxPoint as="offset" />
          </mxGeometry>
        </mxCell>
        <mxCell id="1lUNTdqZq1-scsrUU96o-76" value="Is&lt;div&gt;successfully&lt;div&gt;deserialised?&lt;/div&gt;&lt;/div&gt;" style="strokeWidth=2;html=1;shape=mxgraph.flowchart.decision;whiteSpace=wrap;fontFamily=STIX;" vertex="1" parent="WIyWlLk6GJQsqaUBKTNV-1">
          <mxGeometry x="520" y="340" width="160" height="80" as="geometry" />
        </mxCell>
        <mxCell id="1lUNTdqZq1-scsrUU96o-81" value="" style="rounded=1;whiteSpace=wrap;html=1;absoluteArcSize=1;arcSize=14;strokeWidth=2;fontFamily=STIX;" vertex="1" parent="WIyWlLk6GJQsqaUBKTNV-1">
          <mxGeometry x="520" y="540" width="160" height="40" as="geometry" />
        </mxCell>
        <mxCell id="1lUNTdqZq1-scsrUU96o-82" value="Disconnect" style="rounded=1;whiteSpace=wrap;html=1;absoluteArcSize=1;arcSize=14;strokeWidth=2;fontFamily=STIX;" vertex="1" parent="WIyWlLk6GJQsqaUBKTNV-1">
          <mxGeometry x="530" y="540" width="140" height="40" as="geometry" />
        </mxCell>
        <mxCell id="1lUNTdqZq1-scsrUU96o-83" style="edgeStyle=orthogonalEdgeStyle;rounded=0;orthogonalLoop=1;jettySize=auto;html=1;exitX=0.5;exitY=1;exitDx=0;exitDy=0;fontFamily=STIX;" edge="1" parent="WIyWlLk6GJQsqaUBKTNV-1" source="1lUNTdqZq1-scsrUU96o-81" target="1lUNTdqZq1-scsrUU96o-81">
          <mxGeometry relative="1" as="geometry" />
        </mxCell>
        <mxCell id="1lUNTdqZq1-scsrUU96o-84" value="Finish" style="strokeWidth=2;html=1;shape=mxgraph.flowchart.terminator;whiteSpace=wrap;fontFamily=STIX;" vertex="1" parent="WIyWlLk6GJQsqaUBKTNV-1">
          <mxGeometry x="520" y="620" width="160" height="60" as="geometry" />
        </mxCell>
        <mxCell id="1lUNTdqZq1-scsrUU96o-85" style="edgeStyle=orthogonalEdgeStyle;rounded=0;orthogonalLoop=1;jettySize=auto;html=1;exitX=0.5;exitY=1;exitDx=0;exitDy=0;entryX=0.5;entryY=0;entryDx=0;entryDy=0;entryPerimeter=0;fontFamily=STIX;" edge="1" parent="WIyWlLk6GJQsqaUBKTNV-1" source="1lUNTdqZq1-scsrUU96o-82" target="1lUNTdqZq1-scsrUU96o-84">
          <mxGeometry relative="1" as="geometry" />
        </mxCell>
      </root>
    </mxGraphModel>
  </diagram>
</mxfile>
